<svg width="512" height="512" viewBox="0 0 512 512" fill="none" xmlns="http://www.w3.org/2000/svg">
  <!-- Background -->
  <rect width="512" height="512" rx="80" fill="url(#gradient1)"/>
  
  <!-- Code brackets -->
  <path d="M120 180L80 220L120 260" stroke="url(#gradient2)" stroke-width="16" stroke-linecap="round" stroke-linejoin="round"/>
  <path d="M392 180L432 220L392 260" stroke="url(#gradient2)" stroke-width="16" stroke-linecap="round" stroke-linejoin="round"/>
  
  <!-- Code lines -->
  <rect x="160" y="200" width="80" height="8" rx="4" fill="url(#gradient3)"/>
  <rect x="160" y="220" width="120" height="8" rx="4" fill="url(#gradient3)"/>
  <rect x="160" y="240" width="60" height="8" rx="4" fill="url(#gradient3)"/>
  
  <rect x="272" y="200" width="60" height="8" rx="4" fill="url(#gradient3)"/>
  <rect x="272" y="220" width="80" height="8" rx="4" fill="url(#gradient3)"/>
  <rect x="272" y="240" width="100" height="8" rx="4" fill="url(#gradient3)"/>
  
  <!-- Center diamond/logo -->
  <circle cx="256" cy="320" r="40" fill="url(#gradient4)" opacity="0.8"/>
  <path d="M256 295L271 310L256 325L241 310Z" fill="white"/>
  
  <!-- Sparkle effects -->
  <circle cx="380" cy="160" r="3" fill="#60A5FA" opacity="0.8"/>
  <circle cx="140" cy="340" r="2" fill="#A855F7" opacity="0.6"/>
  <circle cx="360" cy="380" r="2.5" fill="#06B6D4" opacity="0.7"/>
  
  <defs>
    <linearGradient id="gradient1" x1="0%" y1="0%" x2="100%" y2="100%">
      <stop offset="0%" style="stop-color:#1f2937"/>
      <stop offset="50%" style="stop-color:#374151"/>
      <stop offset="100%" style="stop-color:#111827"/>
    </linearGradient>
    
    <linearGradient id="gradient2" x1="0%" y1="0%" x2="100%" y2="0%">
      <stop offset="0%" style="stop-color:#60A5FA"/>
      <stop offset="50%" style="stop-color:#A855F7"/>
      <stop offset="100%" style="stop-color:#06B6D4"/>
    </linearGradient>
    
    <linearGradient id="gradient3" x1="0%" y1="0%" x2="100%" y2="0%">
      <stop offset="0%" style="stop-color:#60A5FA"/>
      <stop offset="100%" style="stop-color:#A855F7"/>
    </linearGradient>
    
    <linearGradient id="gradient4" x1="0%" y1="0%" x2="100%" y2="100%">
      <stop offset="0%" style="stop-color:#60A5FA"/>
      <stop offset="50%" style="stop-color:#A855F7"/>
      <stop offset="100%" style="stop-color:#06B6D4"/>
    </linearGradient>
  </defs>
</svg>
